<svg width="15" height="20" viewBox="0 0 15 20" fill="none" xmlns="http://www.w3.org/2000/svg">
<path d="M12.6723 9.09413C12.4423 8.77648 12.1623 8.50119 11.9023 8.22589C11.2323 7.5906 10.4723 7.1353 9.83226 6.46824C8.34226 4.92236 8.01226 2.3706 8.96226 0.411774C8.01226 0.655303 7.18226 1.20589 6.47226 1.80942C3.88226 4.01177 2.86226 7.89766 4.08226 11.233C4.12226 11.3388 4.16226 11.4447 4.16226 11.5824C4.16226 11.8153 4.01226 12.0271 3.81226 12.1118C3.58226 12.2177 3.34226 12.1541 3.15226 11.9847C3.09516 11.9347 3.04764 11.8736 3.01226 11.8047C1.88226 10.2906 1.70226 8.12001 2.46226 6.38354C0.792256 7.82354 -0.117743 10.2588 0.0122567 12.5565C0.0722567 13.0859 0.132257 13.6153 0.302257 14.1447C0.442257 14.78 0.712257 15.4153 1.01226 15.9765C2.09226 17.8082 3.96226 19.1212 5.97226 19.3859C8.11226 19.6718 10.4023 19.2588 12.0423 17.6918C13.8723 15.9341 14.5123 13.1177 13.5723 10.7035L13.4423 10.4282C13.2323 9.94119 12.6723 9.09413 12.6723 9.09413ZM9.51226 15.7647C9.23226 16.0188 8.77226 16.2941 8.41226 16.4C7.29226 16.8235 6.17226 16.2306 5.51226 15.5318C6.70226 15.2353 7.41226 14.3035 7.62226 13.3612C7.79226 12.5141 7.47226 11.8153 7.34226 11C7.22226 10.2165 7.24226 9.54942 7.51226 8.81883C7.70226 9.22119 7.90226 9.62354 8.14226 9.94119C8.91226 11 10.1223 11.4659 10.3823 12.9059C10.4223 13.0541 10.4423 13.2024 10.4423 13.3612C10.4723 14.2294 10.1123 15.1824 9.51226 15.7647Z" fill="#3E3E3E"/>
</svg>
